# xmcd
#
# Track frame offsets: 
#        150
#        23989
#        37679
#        49324
#        68729
#        81173
#        103575
#        121954
#        134982
#        153050
#        172231
#        190604
#
# Disc length: 2823 seconds
#
# Revision: 2
# Processed by: cddbd v1.5.2PL0 Copyright (c) Steve Scherf et al.
# Submitted via: ExactAudioCopy v0.99pb5
#
DISCID=9e0b050c
DTITLE=Pavel Stratan - Amintiri din copilarie vol.2
DYEAR=2004
DGENRE=Folk
TTITLE0=Seca
TTITLE1=Inca nu-invatam
TTITLE2=Pestisorul de aur
TTITLE3=Primul sarut
TTITLE4=Viata moldovana
TTITLE5=Peste ani cincizeci
TTITLE6=La tanti Nina
TTITLE7=Sanatate
TTITLE8=M-am nascut de ziua mea
TTITLE9=Copilaria
TTITLE10=Foc la ghete
TTITLE11=Visul
EXTD=
EXTT0=
EXTT1=
EXTT2=
EXTT3=
EXTT4=
EXTT5=
EXTT6=
EXTT7=
EXTT8=
EXTT9=
EXTT10=
EXTT11=
PLAYORDER=
